<svg xmlns="http://www.w3.org/2000/svg" width="2048" height="256" viewBox="0 0 2048 256">
  <defs>
    <radialGradient id="furGold" cx="0.34" cy="0.2" r="0.82">
      <stop offset="0" stop-color="#fff6a8"/>
      <stop offset="0.34" stop-color="#ffd84a"/>
      <stop offset="0.72" stop-color="#f4a91f"/>
      <stop offset="1" stop-color="#b86414"/>
    </radialGradient>
    <radialGradient id="belly" cx="0.44" cy="0.28" r="0.7">
      <stop offset="0" stop-color="#fff8c8"/>
      <stop offset="1" stop-color="#ffd96b"/>
    </radialGradient>
    <linearGradient id="earShade" x1="0" x2="1" y1="0" y2="1">
      <stop offset="0" stop-color="#ffe66d"/>
      <stop offset="0.66" stop-color="#f6ad26"/>
      <stop offset="1" stop-color="#4c321d"/>
    </linearGradient>
    <radialGradient id="cheekSpark" cx="0.4" cy="0.35" r="0.72">
      <stop offset="0" stop-color="#ffffff"/>
      <stop offset="0.3" stop-color="#68fff8"/>
      <stop offset="1" stop-color="#087dff"/>
    </radialGradient>
    <radialGradient id="eyeGloss" cx="0.38" cy="0.3" r="0.75">
      <stop offset="0" stop-color="#ffffff"/>
      <stop offset="0.08" stop-color="#ffffff"/>
      <stop offset="0.16" stop-color="#22384e"/>
      <stop offset="1" stop-color="#05090d"/>
    </radialGradient>
    <radialGradient id="boltGlow" cx="0.2" cy="0.5" r="0.9">
      <stop offset="0" stop-color="#ffffff"/>
      <stop offset="0.28" stop-color="#faff7c"/>
      <stop offset="0.62" stop-color="#5eeaff"/>
      <stop offset="1" stop-color="#2c70ff" stop-opacity="0"/>
    </radialGradient>
    <filter id="softShadow" x="-40%" y="-35%" width="190%" height="190%">
      <feDropShadow dx="0" dy="8" stdDeviation="7" flood-color="#000000" flood-opacity="0.44"/>
    </filter>
    <filter id="sparkBloom" x="-100%" y="-100%" width="300%" height="300%">
      <feGaussianBlur stdDeviation="2" result="blur"/>
      <feMerge>
        <feMergeNode in="blur"/>
        <feMergeNode in="SourceGraphic"/>
      </feMerge>
    </filter>

    <g id="spark-familiar" filter="url(#softShadow)">
      <path d="M54 128 C33 107 24 76 28 51 C54 65 82 91 93 132 C78 124 65 124 54 128 Z" fill="#f6bd35" stroke="#9b6519" stroke-width="4" stroke-linejoin="round"/>
      <path d="M202 127 C223 106 232 76 228 51 C202 65 174 91 163 132 C178 124 191 124 202 127 Z" fill="#f6bd35" stroke="#9b6519" stroke-width="4" stroke-linejoin="round"/>
      <path d="M83 153 C54 156 36 170 35 190 C55 181 74 182 94 192 C104 178 101 161 83 153 Z" fill="#d37a18" stroke="#8d4f12" stroke-width="4" stroke-linejoin="round"/>
      <path d="M174 153 C202 156 221 170 222 190 C201 181 183 182 162 192 C153 178 156 161 174 153 Z" fill="#d37a18" stroke="#8d4f12" stroke-width="4" stroke-linejoin="round"/>

      <ellipse cx="128" cy="147" rx="56" ry="45" fill="url(#furGold)" stroke="#915813" stroke-width="4"/>
      <ellipse cx="128" cy="157" rx="31" ry="25" fill="url(#belly)" opacity="0.92"/>
      <path d="M73 91 C72 55 95 33 128 33 C161 33 184 55 183 91 C183 129 160 153 128 153 C96 153 73 129 73 91 Z" fill="url(#furGold)" stroke="#915813" stroke-width="4"/>

      <path d="M91 51 L72 9 L111 40 Z" fill="url(#earShade)" stroke="#8f5614" stroke-width="4" stroke-linejoin="round"/>
      <path d="M165 51 L184 9 L145 40 Z" fill="url(#earShade)" stroke="#8f5614" stroke-width="4" stroke-linejoin="round"/>
      <path d="M73 11 L82 29 L91 19 Z M183 11 L174 29 L165 19 Z" fill="#3b2b21" opacity="0.8"/>
      <path d="M111 37 C120 29 137 29 146 37" fill="none" stroke="#fff3a2" stroke-width="3" stroke-linecap="round" opacity="0.55"/>

      <ellipse cx="104" cy="88" rx="14" ry="18" fill="#071018"/>
      <ellipse cx="152" cy="88" rx="14" ry="18" fill="#071018"/>
      <ellipse cx="100" cy="81" rx="4.5" ry="5.5" fill="#ffffff"/>
      <ellipse cx="148" cy="81" rx="4.5" ry="5.5" fill="#ffffff"/>
      <circle cx="109" cy="96" r="3" fill="#233a4a" opacity="0.7"/>
      <circle cx="157" cy="96" r="3" fill="#233a4a" opacity="0.7"/>
      <circle cx="102" cy="117" r="11" fill="url(#cheekSpark)" filter="url(#sparkBloom)"/>
      <circle cx="154" cy="117" r="11" fill="url(#cheekSpark)" filter="url(#sparkBloom)"/>
      <path d="M124 100 C126 105 130 105 132 100" fill="none" stroke="#4d2e14" stroke-width="4" stroke-linecap="round"/>
      <path d="M105 130 C116 140 140 140 151 130" fill="none" stroke="#5f3a18" stroke-width="4" stroke-linecap="round"/>
      <path d="M91 73 C98 67 106 65 115 67 M141 67 C151 65 159 67 166 73" fill="none" stroke="#6f4318" stroke-width="3" stroke-linecap="round" opacity="0.42"/>

      <path d="M178 160 L217 149 L197 172 L229 176 L184 202 L199 178 L166 185 Z" fill="#ffe23f" stroke="#9b6519" stroke-width="4" stroke-linejoin="round"/>
      <path d="M71 75 L57 64 M67 100 L50 100 M73 124 L58 137 M185 75 L199 64 M189 100 L206 100 M183 124 L198 137" fill="none" stroke="#fff6a8" stroke-width="4" stroke-linecap="round" opacity="0.72"/>
      <path d="M93 188 C80 204 81 221 97 224 C112 212 113 196 103 184 Z M154 184 C144 196 145 212 160 224 C176 221 177 204 164 188 Z" fill="#b86414" stroke="#8d4f12" stroke-width="4" stroke-linejoin="round"/>
    </g>
  </defs>

  <rect width="2048" height="256" fill="none"/>
  <g transform="translate(0 4)"><use href="#spark-familiar"/></g>
  <g transform="translate(256 8) scale(1 0.97)"><use href="#spark-familiar"/></g>
  <g transform="translate(512 13) scale(1 0.92)"><use href="#spark-familiar"/></g>
  <g transform="translate(768 6) scale(1 0.98)"><use href="#spark-familiar"/></g>
  <g transform="translate(1024 0) rotate(-3 128 128)"><use href="#spark-familiar"/></g>
  <g transform="translate(1280 4)"><use href="#spark-familiar"/><path d="M206 108 L236 96 L224 115 L251 114 L213 138 L225 119 Z" fill="url(#boltGlow)" filter="url(#sparkBloom)"/></g>
  <g transform="translate(1536 2)"><use href="#spark-familiar"/><path d="M205 105 L257 84 L239 113 L286 111 L219 153 L237 121 Z" fill="url(#boltGlow)" filter="url(#sparkBloom)"/></g>
  <g transform="translate(1792 8) scale(1 0.95)"><use href="#spark-familiar"/><path d="M206 108 L232 97 L223 115 L247 115 L215 136 L225 119 Z" fill="url(#boltGlow)" filter="url(#sparkBloom)" opacity="0.86"/></g>
</svg>
